<svg xmlns="http://www.w3.org/2000/svg" width="7.937" height="14" viewBox="0 0 7.937 14">
  <defs>
    <style>
      .cls-1 {
        fill: #006cd1;
        fill-rule: evenodd;
      }
    </style>
  </defs>
  <path class="cls-1" d="M897.691,6485.5h-1.9a3.257,3.257,0,0,0-3.511,3.44v1.59h-1.909a0.3,0.3,0,0,0-.3.29v2.3a0.3,0.3,0,0,0,.3.29h1.909v5.8a0.3,0.3,0,0,0,.3.29h2.489a0.3,0.3,0,0,0,.3-0.29v-5.8H897.6a0.294,0.294,0,0,0,.3-0.29v-2.3a0.262,0.262,0,0,0-.087-0.2,0.285,0.285,0,0,0-.211-0.09h-2.232v-1.34c0-.65.161-0.98,1.042-0.98h1.279a0.292,0.292,0,0,0,.3-0.28v-2.14a0.294,0.294,0,0,0-.3-0.29h0Zm0,0" transform="translate(-890.063 -6485.5)"/>
</svg>
