<svg xmlns="http://www.w3.org/2000/svg" width="18.469" height="12.25" viewBox="0 0 18.469 12.25">
  <defs>
    <style>
      .cls-1 {
        fill: #cacaca;
        fill-rule: evenodd;
      }
    </style>
  </defs>
  <path class="cls-1" d="M992.093,6486.63h0a0.313,0.313,0,0,0-.04-0.11h0a0.276,0.276,0,0,0-.072-0.08c-0.006,0-.012-0.01-0.018-0.01a0.209,0.209,0,0,0-.073-0.04c-0.017,0-.035-0.01-0.051-0.01s-0.026-.01-0.041-0.01-0.021.01-.03,0.01h-0.04l-17.847,3.68a0.291,0.291,0,0,0-.242.25,0.313,0.313,0,0,0,.161.32l5.112,2.68,0.9,4.96a0.034,0.034,0,0,0,0,.01,0.4,0.4,0,0,0,0,.07,0.214,0.214,0,0,0,.006.04,0.208,0.208,0,0,0,.034.08l0.006,0.02h0a0.226,0.226,0,0,1,.013.02c0.016,0.02.031,0.03,0.047,0.05h0.009a0.013,0.013,0,0,0,.013.01L980,6498.6a0.028,0.028,0,0,0,.026.01,0.237,0.237,0,0,0,.084.01h0.021a0.3,0.3,0,0,0,.219-0.09l3.406-2.27,3.565,2.32a0.326,0.326,0,0,0,.168.04,0.314,0.314,0,0,0,.1-0.01,0.308,0.308,0,0,0,.191-0.19l4.284-11.58a0.316,0.316,0,0,0,.045-0.16,0.3,0.3,0,0,0-.011-0.05h0Zm-3.561,2.06-7.375,5.4-0.033.03a0.109,0.109,0,0,1-.011.01,0.036,0.036,0,0,1-.018.02c-0.006.01-.01,0.02-0.015,0.03a0.131,0.131,0,0,0-.028.05c0,0.01,0,.01,0,0.01s0,0.01,0,.01l-0.845,2.73-0.669-3.7Zm-7.855,8.88,0.837-2.75,1.3,0.84,0.374,0.24-1.268.84Zm0,0" transform="translate(-973.625 -6486.38)"/>
</svg>
