<svg xmlns="http://www.w3.org/2000/svg" width="16.719" height="9.62" viewBox="0 0 16.719 9.62">
  <defs>
    <style>
      .cls-1 {
        fill: #151515;
        fill-rule: evenodd;
        opacity: 0.2;
      }
    </style>
  </defs>
  <path class="cls-1" d="M947.156,6496.82c-0.02-.04-0.039-0.08-0.057-0.11a8.711,8.711,0,0,0-1.661-1.94l-0.018-.02-0.009-.01-0.008-.01h-0.009a7.821,7.821,0,0,1-.705-0.72,0.678,0.678,0,0,1-.122-0.71,6.932,6.932,0,0,1,.783-1.15q0.357-.465.566-0.75c1-1.34,1.438-2.21,1.3-2.58l-0.052-.09a0.5,0.5,0,0,0-.269-0.14,1.252,1.252,0,0,0-.557-0.02l-2.506.01a0.359,0.359,0,0,0-.174.01,0.507,0.507,0,0,1-.114.02l-0.043.03-0.034.02a0.547,0.547,0,0,0-.1.09,0.724,0.724,0,0,0-.087.16,13.8,13.8,0,0,1-.931,1.97c-0.215.37-.412,0.68-0.592,0.95a4.614,4.614,0,0,1-.452.59,3.061,3.061,0,0,1-.331.3,0.316,0.316,0,0,1-.226.1c-0.052-.01-0.1-0.03-0.148-0.04a0.55,0.55,0,0,1-.2-0.21,0.994,0.994,0,0,1-.1-0.35c-0.017-.13-0.027-0.25-0.03-0.35s0-.24,0-0.42,0.009-.31.009-0.37c0-.22,0-0.47.013-0.73s0.016-.46.022-0.62,0.009-.31.009-0.48a2.087,2.087,0,0,0-.031-0.4,1.311,1.311,0,0,0-.091-0.28,0.479,0.479,0,0,0-.179-0.21,1,1,0,0,0-.291-0.12,5.392,5.392,0,0,0-1.175-.11,5.318,5.318,0,0,0-2.079.21,1.113,1.113,0,0,0-.331.26c-0.1.13-.119,0.2-0.044,0.21a1.051,1.051,0,0,1,.74.38l0.053,0.1a1.9,1.9,0,0,1,.121.41,4,4,0,0,1,.078.64,6.689,6.689,0,0,1,0,1.1c-0.028.3-.056,0.54-0.082,0.71a1.364,1.364,0,0,1-.117.41c-0.053.11-.087,0.17-0.105,0.2a0.349,0.349,0,0,1-.043.04,0.63,0.63,0,0,1-.236.04,0.558,0.558,0,0,1-.3-0.12,1.8,1.8,0,0,1-.361-0.34,4.128,4.128,0,0,1-.423-0.6c-0.156-.26-0.318-0.56-0.487-0.91l-0.139-.26c-0.087-.16-0.206-0.4-0.356-0.71s-0.285-.62-0.4-0.91a0.531,0.531,0,0,0-.21-0.28l-0.043-.03a0.95,0.95,0,0,0-.139-0.08,1.272,1.272,0,0,0-.2-0.05l-2.384.02a0.606,0.606,0,0,0-.5.16l-0.035.05a0.322,0.322,0,0,0-.026.15,0.669,0.669,0,0,0,.052.23c0.348,0.83.726,1.62,1.136,2.39s0.764,1.39,1.065,1.86,0.609,0.91.922,1.32,0.521,0.68.622,0.8,0.182,0.21.24,0.27l0.217,0.21a4.688,4.688,0,0,0,.614.5,9.513,9.513,0,0,0,.9.58,4.848,4.848,0,0,0,1.144.47,3.744,3.744,0,0,0,1.271.14h1a0.7,0.7,0,0,0,.461-0.19l0.035-.04a0.635,0.635,0,0,0,.065-0.17,0.873,0.873,0,0,0,.031-0.24,2.934,2.934,0,0,1,.056-0.68,1.972,1.972,0,0,1,.148-0.46,1.155,1.155,0,0,1,.187-0.26,0.528,0.528,0,0,1,.148-0.12,0.136,0.136,0,0,1,.07-0.03,0.526,0.526,0,0,1,.491.13,3.061,3.061,0,0,1,.531.51c0.165,0.2.364,0.43,0.6,0.68a4.783,4.783,0,0,0,.609.57l0.174,0.1a1.769,1.769,0,0,0,.452.19,0.952,0.952,0,0,0,.487.05l2.228-.04a0.934,0.934,0,0,0,.513-0.11,0.418,0.418,0,0,0,.218-0.24,0.7,0.7,0,0,0,0-.3,1.064,1.064,0,0,0-.061-0.23h0Zm0,0" transform="translate(-930.531 -6488.13)"/>
</svg>
